800.ufo
<glyph name="exclam" format="1">
  <advance width="769"/>
  <unicode hex="0021"/>
  <outline>
    <contour>
      <point x="324" y="471" type="line"/>
      <point x="457" y="471" type="line"/>
      <point x="521" y="1318" type="line"/>
      <point x="521" y="1575" type="line"/>
      <point x="251" y="1575" type="line"/>
      <point x="251" y="1318" type="line"/>
    </contour>
    <contour>
      <point x="381" y="-7" type="curve" smooth="yes"/>
      <point x="473" y="-7"/>
      <point x="546" y="72"/>
      <point x="546" y="164" type="curve" smooth="yes"/>
      <point x="546" y="259"/>
      <point x="473" y="333"/>
      <point x="381" y="333" type="curve" smooth="yes"/>
      <point x="288" y="333"/>
      <point x="213" y="259"/>
      <point x="213" y="164" type="curve" smooth="yes"/>
      <point x="213" y="72"/>
      <point x="288" y="-7"/>
    </contour>
  </outline>
</glyph>
<glyph name="numbersign" format="1">
  <advance width="1105"/>
  <unicode hex="0023"/>
  <outline>
    <contour>
      <point x="151" y="3" type="line"/>
      <point x="331" y="3" type="line"/>
      <point x="407" y="439" type="line"/>
      <point x="618" y="439" type="line"/>
      <point x="540" y="3" type="line"/>
      <point x="723" y="3" type="line"/>
      <point x="802" y="439" type="line"/>
      <point x="956" y="439" type="line"/>
      <point x="973" y="575" type="line"/>
      <point x="826" y="575" type="line"/>
      <point x="886" y="941" type="line"/>
      <point x="1033" y="941" type="line"/>
      <point x="1053" y="1082" type="line"/>
      <point x="910" y="1082" type="line"/>
      <point x="975" y="1456" type="line"/>
      <point x="789" y="1456" type="line"/>
      <point x="727" y="1082" type="line"/>
      <point x="517" y="1082" type="line"/>
      <point x="582" y="1456" type="line"/>
      <point x="400" y="1456" type="line"/>
      <point x="337" y="1082" type="line"/>
      <point x="142" y="1082" type="line"/>
      <point x="123" y="941" type="line"/>
      <point x="314" y="941" type="line"/>
      <point x="252" y="575" type="line"/>
      <point x="83" y="575" type="line"/>
      <point x="63" y="439" type="line"/>
      <point x="228" y="439" type="line"/>
    </contour>
    <contour>
      <point x="434" y="575" type="line"/>
      <point x="494" y="941" type="line"/>
      <point x="702" y="941" type="line"/>
      <point x="640" y="575" type="line"/>
    </contour>
  </outline>
</glyph>
<glyph name="dollar" format="1">
  <advance width="1229"/>
  <unicode hex="0024"/>
  <outline>
    <contour>
      <point x="522" y="1772" type="line"/>
      <point x="526" y="1436" type="line"/>
      <point x="690" y="1436" type="line"/>
      <point x="690" y="1772" type="line"/>
    </contour>
    <contour>
      <point x="537" y="59" type="line"/>
      <point x="537" y="-278" type="line"/>
      <point x="714" y="-278" type="line"/>
      <point x="699" y="59" type="line"/>
    </contour>
    <component base="S"/>
  </outline>
</glyph>
<glyph name="ampersand" format="1">
  <advance width="1420"/>
  <unicode hex="0026"/>
  <outline>
    <contour>
      <point x="1185" y="-39" type="line"/>
      <point x="1380" y="116" type="line"/>
      <point x="733" y="846" type="line"/>
      <point x="897" y="932"/>
      <point x="1051" y="1093"/>
      <point x="1051" y="1233" type="curve" smooth="yes"/>
      <point x="1051" y="1467"/>
      <point x="822" y="1549"/>
      <point x="643" y="1545" type="curve" smooth="yes"/>
      <point x="453" y="1542"/>
      <point x="243" y="1430"/>
      <point x="243" y="1187" type="curve" smooth="yes"/>
      <point x="243" y="1049"/>
      <point x="369" y="910"/>
      <point x="406" y="874" type="curve"/>
      <point x="293" y="791"/>
      <point x="95" y="661"/>
      <point x="95" y="466" type="curve" smooth="yes"/>
      <point x="95" y="124"/>
      <point x="309" y="-16"/>
      <point x="618" y="-16" type="curve" smooth="yes"/>
      <point x="1045" y="-16"/>
      <point x="1247" y="354"/>
      <point x="1429" y="653" type="curve"/>
      <point x="1246" y="783" type="line"/>
      <point x="1085" y="480"/>
      <point x="879" y="205"/>
      <point x="620" y="205" type="curve" smooth="yes"/>
      <point x="474" y="205"/>
      <point x="359" y="287"/>
      <point x="377" y="467" type="curve" smooth="yes"/>
      <point x="388" y="573"/>
      <point x="542" y="692"/>
      <point x="542" y="692" type="curve"/>
    </contour>
    <contour>
      <point x="620" y="991" type="curve"/>
      <point x="542" y="1082"/>
      <point x="523" y="1133"/>
      <point x="523" y="1223" type="curve" smooth="yes"/>
      <point x="523" y="1316"/>
      <point x="581" y="1341"/>
      <point x="651" y="1341" type="curve" smooth="yes"/>
      <point x="726" y="1341"/>
      <point x="786" y="1315"/>
      <point x="786" y="1228" type="curve" smooth="yes"/>
      <point x="786" y="1151"/>
      <point x="700" y="1031"/>
    </contour>
  </outline>
</glyph>
<glyph name="parenright" format="1">
  <advance width="886"/>
  <unicode hex="0029"/>
  <outline>
    <contour>
      <point x="136" y="1556" type="line"/>
      <point x="266" y="1427"/>
      <point x="416" y="1164"/>
      <point x="416" y="646" type="curve"/>
      <point x="680" y="646" type="line"/>
      <point x="680" y="1013"/>
      <point x="542" y="1426"/>
      <point x="395" y="1596" type="curve"/>
      <point x="136" y="1596" type="line"/>
    </contour>
    <contour>
      <point x="395" y="-303" type="line"/>
      <point x="542" y="-133"/>
      <point x="680" y="279"/>
      <point x="680" y="646" type="curve"/>
      <point x="416" y="646" type="line"/>
      <point x="416" y="129"/>
      <point x="266" y="-145"/>
      <point x="136" y="-274" type="curve"/>
      <point x="136" y="-303" type="line"/>
    </contour>
  </outline>
</glyph>
<glyph name="plus" format="1">
  <advance width="1195"/>
  <unicode hex="002B"/>
  <outline>
    <contour>
      <point x="469" y="1239" type="line"/>
      <point x="469" y="868" type="line"/>
      <point x="102" y="868" type="line"/>
      <point x="102" y="617" type="line"/>
      <point x="469" y="617" type="line"/>
      <point x="469" y="238" type="line"/>
      <point x="724" y="238" type="line"/>
      <point x="724" y="617" type="line"/>
      <point x="1093" y="617" type="line"/>
      <point x="1093" y="868" type="line"/>
      <point x="725" y="868" type="line"/>
      <point x="725" y="1239" type="line"/>
    </contour>
  </outline>
</glyph>
<glyph name="comma" format="1">
  <advance width="685"/>
  <unicode hex="002C"/>
  <outline>
    <contour>
      <point x="184" y="-354" type="curve"/>
      <point x="404" y="-354" type="line"/>
      <point x="528" y="100" type="line"/>
      <point x="528" y="285" type="line"/>
      <point x="220" y="285" type="line"/>
      <point x="220" y="216"/>
      <point x="184" y="-354"/>
    </contour>
  </outline>
</glyph>
<glyph name="period" format="1">
  <advance width="744"/>
  <unicode hex="002E"/>
  <outline>
    <contour>
      <point x="364" y="-6" type="curve" smooth="yes"/>
      <point x="461" y="-6"/>
      <point x="542" y="47"/>
      <point x="542" y="159" type="curve" smooth="yes"/>
      <point x="542" y="276"/>
      <point x="461" y="331"/>
      <point x="364" y="331" type="curve" smooth="yes"/>
      <point x="269" y="331"/>
      <point x="187" y="276"/>
      <point x="187" y="159" type="curve" smooth="yes"/>
      <point x="187" y="45"/>
      <point x="271" y="-6"/>
    </contour>
  </outline>
</glyph>
<glyph name="slash" format="1">
  <advance width="1026"/>
  <unicode hex="002F"/>
  <outline>
    <contour>
      <point x="51" y="-187" type="line"/>
      <point x="273" y="-187" type="line"/>
      <point x="930" y="1560" type="line"/>
      <point x="704" y="1560" type="line"/>
    </contour>
  </outline>
</glyph>
<glyph name="three" format="1">
  <advance width="1223"/>
  <unicode hex="0033"/>
  <outline>
    <contour>
      <point x="551" y="-20" type="curve" smooth="yes"/>
      <point x="813" y="-20"/>
      <point x="1118" y="87"/>
      <point x="1116" y="424" type="curve" smooth="yes"/>
      <point x="1115" y="582"/>
      <point x="1003" y="788"/>
      <point x="608" y="754" type="curve"/>
      <point x="608" y="743" type="line"/>
      <point x="1016" y="731"/>
      <point x="1073" y="936"/>
      <point x="1073" y="1093" type="curve"/>
      <point x="1067" y="1369"/>
      <point x="837" y="1476"/>
      <point x="535" y="1476" type="curve" smooth="yes"/>
      <point x="283" y="1476"/>
      <point x="139" y="1356"/>
      <point x="64" y="1267" type="curve"/>
      <point x="229" y="1082" type="line"/>
      <point x="250" y="1076" type="line"/>
      <point x="331" y="1154"/>
      <point x="413" y="1188"/>
      <point x="508" y="1192" type="curve"/>
      <point x="630" y="1192"/>
      <point x="691" y="1145"/>
      <point x="697" y="1037" type="curve"/>
      <point x="697" y="872"/>
      <point x="602" y="837"/>
      <point x="389" y="837" type="curve"/>
      <point x="278" y="835" type="line"/>
      <point x="299" y="616" type="line"/>
      <point x="393" y="616" type="line" smooth="yes"/>
      <point x="587" y="616"/>
      <point x="716" y="593"/>
      <point x="714" y="432" type="curve" smooth="yes"/>
      <point x="713" y="331"/>
      <point x="657" y="259"/>
      <point x="519" y="259" type="curve" smooth="yes"/>
      <point x="374" y="259"/>
      <point x="274" y="331"/>
      <point x="222" y="382" type="curve"/>
      <point x="195" y="382" type="line"/>
      <point x="49" y="187" type="line"/>
      <point x="71" y="155"/>
      <point x="240" y="-20"/>
    </contour>
  </outline>
</glyph>
<glyph name="four" format="1">
  <advance width="1390"/>
  <unicode hex="0034"/>
  <outline>
    <contour>
      <point x="691" y="0" type="line"/>
      <point x="1090" y="0" type="line"/>
      <point x="1090" y="320" type="line"/>
      <point x="1295" y="320" type="line"/>
      <point x="1311" y="567" type="line"/>
      <point x="1090" y="567" type="line"/>
      <point x="1090" y="1456" type="line"/>
      <point x="623" y="1456" type="line"/>
      <point x="88" y="545" type="line"/>
      <point x="104" y="320" type="line"/>
      <point x="691" y="320" type="line"/>
    </contour>
    <contour>
      <point x="374" y="561" type="line"/>
      <point x="690" y="1101" type="line"/>
      <point x="690" y="561" type="line"/>
    </contour>
  </outline>
</glyph>
<glyph name="five" format="1">
  <advance width="1390"/>
  <unicode hex="0035"/>
  <outline>
    <contour>
      <point x="346" y="407" type="line"/>
      <point x="167" y="210" type="line"/>
      <point x="275" y="51"/>
      <point x="434" y="-20"/>
      <point x="701" y="-20" type="curve"/>
      <point x="1035" y="-20"/>
      <point x="1221" y="207"/>
      <point x="1221" y="486" type="curve"/>
      <point x="1221" y="714"/>
      <point x="1084" y="960"/>
      <point x="754" y="960" type="curve"/>
      <point x="633" y="960"/>
      <point x="561" y="924"/>
      <point x="499" y="857" type="curve"/>
      <point x="526" y="832" type="line"/>
      <point x="576" y="1206" type="line"/>
      <point x="1121" y="1206" type="line"/>
      <point x="1156" y="1456" type="line"/>
      <point x="288" y="1456" type="line"/>
      <point x="223" y="638" type="line"/>
      <point x="495" y="593" type="line"/>
      <point x="513" y="676"/>
      <point x="572" y="715"/>
      <point x="688" y="715" type="curve"/>
      <point x="803" y="715"/>
      <point x="871" y="615"/>
      <point x="873" y="512" type="curve"/>
      <point x="875" y="350"/>
      <point x="803" y="260"/>
      <point x="656" y="260" type="curve"/>
      <point x="559" y="260"/>
      <point x="428" y="297"/>
      <point x="367" y="407" type="curve"/>
    </contour>
  </outline>
</glyph>
<glyph name="seven" format="1">
  <advance width="1390"/>
  <unicode hex="0037"/>
  <outline>
    <contour>
      <point x="318" y="0" type="line"/>
      <point x="732" y="0" type="line"/>
      <point x="1220" y="1177" type="line"/>
      <point x="1214" y="1456" type="line"/>
      <point x="186" y="1456" type="line"/>
      <point x="194" y="1185" type="line"/>
      <point x="806" y="1185" type="line"/>
    </contour>
  </outline>
</glyph>
<glyph name="less" format="1">
  <advance width="1107"/>
  <unicode hex="003C"/>
  <outline>
    <contour>
      <point x="1000" y="192" type="line"/>
      <point x="1000" y="456" type="line"/>
      <point x="405" y="737" type="line"/>
      <point x="1000" y="1046" type="line"/>
      <point x="1000" y="1299" type="line"/>
      <point x="53" y="802" type="line"/>
      <point x="53" y="658" type="line"/>
    </contour>
  </outline>
</glyph>
<glyph name="A" format="1">
  <advance width="1550"/>
  <unicode hex="0041"/>
  <outline>
    <contour>
      <point x="526" y="1456" type="line"/>
      <point x="52" y="0" type="line"/>
      <point x="454" y="0" type="line"/>
      <point x="578" y="404" type="line"/>
      <point x="493" y="353" type="line"/>
      <point x="1033" y="353" type="line"/>
      <point x="964" y="403" type="line"/>
      <point x="1096" y="0" type="line"/>
      <point x="1498" y="0" type="line"/>
      <point x="1031" y="1456" type="line"/>
    </contour>
    <contour>
      <point x="755" y="1228" type="line"/>
      <point x="926" y="547" type="line"/>
      <point x="954" y="593" type="line"/>
      <point x="578" y="593" type="line"/>
      <point x="622" y="544" type="line"/>
      <point x="801" y="1228" type="line"/>
    </contour>
    <contour>
      <point x="784" y="1456" type="move" name="top"/>
    </contour>
    <contour>
      <point x="1313" y="0" type="move" name="ogonek"/>
    </contour>
    <contour>
      <point x="782" y="0" type="move" name="bot"/>
    </contour>
  </outline>
</glyph>
<glyph name="B" format="1">
  <advance width="1451"/>
  <unicode hex="0042"/>
  <outline>
    <contour>
      <point x="615" y="3" type="curve"/>
      <point x="1235" y="3"/>
      <point x="1371" y="157"/>
      <point x="1371" y="434" type="curve"/>
      <point x="1371" y="692"/>
      <point x="1223" y="778"/>
      <point x="881" y="802" type="curve"/>
      <point x="881" y="747" type="line"/>
      <point x="1155" y="774"/>
      <point x="1334" y="894"/>
      <point x="1334" y="1082" type="curve"/>
      <point x="1334" y="1480"/>
      <point x="969" y="1467"/>
      <point x="622" y="1467" type="curve"/>
      <point x="490" y="1467"/>
      <point x="337" y="1463"/>
      <point x="168" y="1456" type="curve"/>
      <point x="168" y="21" type="line"/>
      <point x="339" y="8"/>
      <point x="489" y="3"/>
    </contour>
    <contour>
      <point x="567" y="213" type="line"/>
      <point x="567" y="684" type="line"/>
      <point x="522" y="647" type="line"/>
      <point x="705" y="647" type="line"/>
      <point x="880" y="647"/>
      <point x="974" y="631"/>
      <point x="974" y="464" type="curve"/>
      <point x="974" y="288"/>
      <point x="875" y="258"/>
      <point x="650" y="258" type="curve"/>
      <point x="579" y="258"/>
      <point x="499" y="264"/>
      <point x="459" y="270" type="curve"/>
    </contour>
    <contour>
      <point x="567" y="842" type="line"/>
      <point x="567" y="1263" type="line"/>
      <point x="482" y="1219" type="line"/>
      <point x="510" y="1223"/>
      <point x="587" y="1223"/>
      <point x="652" y="1223" type="curve"/>
      <point x="836" y="1223"/>
      <point x="913" y="1202"/>
      <point x="913" y="1041" type="curve"/>
      <point x="913" y="925"/>
      <point x="838" y="877"/>
      <point x="711" y="877" type="curve"/>
      <point x="517" y="877" type="line"/>
    </contour>
    <contour>
      <point x="704" y="1456" type="move" name="top"/>
    </contour>
  </outline>
</glyph>
<glyph name="C" format="1">
  <advance width="1609"/>
  <unicode hex="0043"/>
  <outline>
    <contour>
      <point x="384" y="1476"/>
      <point x="112" y="1206"/>
      <point x="112" y="733" type="curve" smooth="yes"/>
      <point x="112" y="248"/>
      <point x="384" y="-20"/>
      <point x="857" y="-20" type="curve" smooth="yes"/>
      <point x="1337" y="-20"/>
      <point x="1464" y="276"/>
      <point x="1499" y="434" type="curve"/>
      <point x="1206" y="553" type="line"/>
      <point x="1177" y="553" type="line"/>
      <point x="1142" y="418"/>
      <point x="1059" y="248"/>
      <point x="860" y="248" type="curve"/>
      <point x="676" y="248"/>
      <point x="539" y="370"/>
      <point x="539" y="733" type="curve" smooth="yes"/>
      <point x="539" y="1084"/>
      <point x="650" y="1188"/>
      <point x="861" y="1206" type="curve"/>
      <point x="1059" y="1215"/>
      <point x="1142" y="1034"/>
      <point x="1177" y="900" type="curve"/>
      <point x="1206" y="900" type="line"/>
      <point x="1499" y="1019" type="line"/>
      <point x="1465" y="1173"/>
      <point x="1321" y="1476"/>
      <point x="858" y="1476" type="curve" smooth="yes"/>
    </contour>
    <contour>
      <point x="892" y="1456" type="move" name="top"/>
    </contour>
    <contour>
      <point x="868" y="-1" type="move" name="bot"/>
    </contour>
  </outline>
</glyph>
<glyph name="D" format="1">
  <advance width="1560"/>
  <unicode hex="0044"/>
  <outline>
    <contour>
      <point x="168" y="5" type="line"/>
      <point x="1169" y="-93"/>
      <point x="1448" y="241"/>
      <point x="1448" y="759" type="curve"/>
      <point x="1448" y="1364"/>
      <point x="1112" y="1517"/>
      <point x="168" y="1456" type="curve"/>
    </contour>
    <contour>
      <point x="457" y="1195" type="line"/>
      <point x="1013" y="1248"/>
      <point x="1063" y="1010"/>
      <point x="1063" y="754" type="curve" smooth="yes"/>
      <point x="1063" y="415"/>
      <point x="914" y="228"/>
      <point x="451" y="282" type="curve"/>
      <point x="567" y="181" type="line"/>
      <point x="567" y="1277" type="line"/>
    </contour>
    <contour>
      <point x="817" y="1456" type="move" name="top"/>
    </contour>
    <contour>
      <point x="769" y="1" type="move" name="bot"/>
    </contour>
    <contour>
      <point x="389" y="745" type="move" name="mid"/>
    </contour>
  </outline>
</glyph>
<glyph name="E" format="1">
  <advance width="1366"/>
  <unicode hex="0045"/>
  <outline>
    <contour>
      <point x="168" y="1456" type="line"/>
      <point x="168" y="0" type="line"/>
      <point x="1235" y="0" type="line"/>
      <point x="1239" y="271" type="line"/>
      <point x="489" y="271" type="line"/>
      <point x="566" y="198" type="line"/>
      <point x="566" y="687" type="line"/>
      <point x="486" y="613" type="line"/>
      <point x="1183" y="613" type="line"/>
      <point x="1183" y="876" type="line"/>
      <point x="488" y="876" type="line"/>
      <point x="566" y="787" type="line"/>
      <point x="566" y="1294" type="line"/>
      <point x="488" y="1194" type="line"/>
      <point x="1198" y="1194" type="line"/>
      <point x="1219" y="1456" type="line"/>
    </contour>
    <contour>
      <point x="758.0" y="1456.0" type="move" name="top"/>
    </contour>
    <contour>
      <point x="986.0" y="0.0" type="move" name="ogonek"/>
    </contour>
    <contour>
      <point x="662.0" y="0.0" type="move" name="bot"/>
    </contour>
  </outline>
</glyph>
<glyph name="H" format="1">
  <advance width="1599"/>
  <unicode hex="0048"/>
  <outline>
    <contour>
      <point x="1032" y="1456" type="line"/>
      <point x="1032" y="837" type="line"/>
      <point x="1087" y="876" type="line"/>
      <point x="513" y="876" type="line"/>
      <point x="567" y="825" type="line"/>
      <point x="567" y="1456" type="line"/>
      <point x="168" y="1456" type="line"/>
      <point x="168" y="-6" type="line"/>
      <point x="567" y="-6" type="line"/>
      <point x="567" y="660" type="line"/>
      <point x="509" y="615" type="line"/>
      <point x="1097" y="615" type="line"/>
      <point x="1032" y="660" type="line"/>
      <point x="1032" y="-6" type="line"/>
      <point x="1431" y="-6" type="line"/>
      <point x="1431" y="1456" type="line"/>
    </contour>
    <contour>
      <point x="811" y="1456" type="move" name="top"/>
    </contour>
  </outline>
</glyph>
<glyph name="I" format="1">
  <advance width="1059"/>
  <unicode hex="0049"/>
  <outline>
    <contour>
      <point x="112" y="1456" type="line"/>
      <point x="112" y="1243" type="line"/>
      <point x="519" y="1243" type="line"/>
      <point x="334" y="1354" type="line"/>
      <point x="334" y="69" type="line"/>
      <point x="522" y="206" type="line"/>
      <point x="112" y="206" type="line"/>
      <point x="112" y="-6" type="line"/>
      <point x="947" y="-6" type="line"/>
      <point x="947" y="206" type="line"/>
      <point x="529" y="206" type="line"/>
      <point x="732" y="80" type="line"/>
      <point x="732" y="1353" type="line"/>
      <point x="530" y="1243" type="line"/>
      <point x="947" y="1243" type="line"/>
      <point x="947" y="1456" type="line"/>
    </contour>
    <contour>
      <point x="533" y="1456" type="move" name="top"/>
    </contour>
    <contour>
      <point x="553" y="0" type="move" name="ogonek"/>
    </contour>
  </outline>
</glyph>
<glyph name="J" format="1">
  <advance width="819.035"/>
  <unicode hex="004A"/>
  <outline>
    <contour>
      <point x="252" y="1456" type="line"/>
      <point x="252" y="305" type="line" smooth="yes"/>
      <point x="252" y="-74"/>
      <point x="243" y="-135"/>
      <point x="128" y="-192" type="curve" smooth="yes"/>
      <point x="-74" y="-291" type="line"/>
      <point x="66" y="-598" type="line"/>
      <point x="241" y="-520" type="line" smooth="yes"/>
      <point x="692" y="-319"/>
      <point x="650" y="-160"/>
      <point x="650" y="295" type="curve" smooth="yes"/>
      <point x="650" y="1456" type="line"/>
    </contour>
    <contour>
      <point x="456" y="1456" type="move" name="top"/>
    </contour>
  </outline>
</glyph>
<glyph name="K" format="1">
  <advance width="1465"/>
  <unicode hex="004B"/>
  <outline>
    <contour>
      <point x="1409" y="1456" type="line"/>
      <point x="971" y="1456" type="line"/>
      <point x="535" y="867" type="line"/>
      <point x="567" y="822" type="line"/>
      <point x="567" y="1456" type="line"/>
      <point x="168" y="1456" type="line"/>
      <point x="168" y="0" type="line"/>
      <point x="567" y="0" type="line"/>
      <point x="567" y="562" type="line"/>
      <point x="537" y="486" type="line"/>
      <point x="634" y="610" type="line"/>
      <point x="581" y="610" type="line"/>
      <point x="1020" y="0" type="line"/>
      <point x="1465" y="0" type="line"/>
      <point x="1465" y="5" type="line"/>
      <point x="849" y="859" type="line"/>
      <point x="851" y="728" type="line"/>
      <point x="1409" y="1455" type="line"/>
    </contour>
    <contour>
      <point x="788" y="1456" type="move" name="top"/>
    </contour>
    <contour>
      <point x="785" y="0" type="move" name="bot"/>
    </contour>
  </outline>
</glyph>
<glyph name="Q" format="1">
  <advance width="1669"/>
  <unicode hex="0051"/>
  <outline>
    <contour>
      <point x="741" y="91" type="line"/>
      <point x="775" y="-19"/>
      <point x="1076" y="-399"/>
      <point x="1254" y="-546" type="curve"/>
      <point x="1504" y="-336" type="line"/>
      <point x="1331" y="-188"/>
      <point x="1195" y="-22"/>
      <point x="1095" y="134" type="curve"/>
    </contour>
    <component base="O"/>
  </outline>
</glyph>
<glyph name="R" format="1">
  <advance width="1509"/>
  <unicode hex="0052"/>
  <outline>
    <contour>
      <point x="168" y="0" type="line"/>
      <point x="567" y="0" type="line"/>
      <point x="567" y="641" type="line"/>
      <point x="519" y="600" type="line"/>
      <point x="770" y="600" type="line"/>
      <point x="697" y="638" type="line"/>
      <point x="1022" y="0" type="line"/>
      <point x="1457" y="0" type="line"/>
      <point x="1457" y="16" type="line"/>
      <point x="1084" y="709" type="line"/>
      <point x="1049" y="638" type="line"/>
      <point x="1182" y="670"/>
      <point x="1376" y="741"/>
      <point x="1376" y="1033" type="curve" smooth="yes"/>
      <point x="1376" y="1502"/>
      <point x="1055" y="1516"/>
      <point x="168" y="1456" type="curve"/>
    </contour>
    <contour>
      <point x="567" y="807" type="line"/>
      <point x="567" y="1248" type="line"/>
      <point x="523" y="1199" type="line"/>
      <point x="783" y="1220"/>
      <point x="1013" y="1251"/>
      <point x="1013" y="1039" type="curve"/>
      <point x="1013" y="882"/>
      <point x="939" y="837"/>
      <point x="760" y="837" type="curve" smooth="yes"/>
      <point x="532" y="837" type="line"/>
    </contour>
    <contour>
      <point x="762" y="1456" type="move" name="top"/>
    </contour>
    <contour>
      <point x="752" y="0" type="move" name="bot"/>
    </contour>
  </outline>
</glyph>
<glyph name="T" format="1">
  <advance width="1293"/>
  <unicode hex="0054"/>
  <outline>
    <contour>
      <point x="46" y="1456" type="line"/>
      <point x="46" y="1208" type="line"/>
      <point x="503" y="1208" type="line"/>
      <point x="448" y="1262" type="line"/>
      <point x="448" y="-6" type="line"/>
      <point x="846" y="-6" type="line"/>
      <point x="846" y="1261" type="line"/>
      <point x="794" y="1208" type="line"/>
      <point x="1247" y="1208" type="line"/>
      <point x="1247" y="1456" type="line"/>
    </contour>
    <contour>
      <point x="654" y="1456" type="move" name="top"/>
    </contour>
    <contour>
      <point x="653" y="0" type="move" name="bot"/>
    </contour>
    <contour>
      <point x="643" y="642" type="move" name="mid"/>
    </contour>
  </outline>
</glyph>
<glyph name="V" format="1">
  <advance width="1373"/>
  <unicode hex="0056"/>
  <outline>
    <contour>
      <point x="440" y="-6" type="line"/>
      <point x="894" y="-6" type="line"/>
      <point x="1373" y="1456" type="line"/>
      <point x="991" y="1456" type="line"/>
      <point x="713" y="488" type="line"/>
      <point x="625" y="111" type="line"/>
      <point x="735" y="111" type="line"/>
      <point x="646" y="485" type="line"/>
      <point x="385" y="1456" type="line"/>
      <point x="0" y="1456" type="line"/>
    </contour>
  </outline>
</glyph>
<glyph name="Y" format="1">
  <advance width="1346"/>
  <unicode hex="0059"/>
  <outline>
    <contour>
      <point x="934" y="1456" type="line"/>
      <point x="637" y="887" type="line"/>
      <point x="703" y="887" type="line"/>
      <point x="414" y="1456" type="line"/>
      <point x="-8" y="1456" type="line"/>
      <point x="492" y="539" type="line"/>
      <point x="473" y="625" type="line"/>
      <point x="473" y="0" type="line"/>
      <point x="871" y="0" type="line"/>
      <point x="871" y="636" type="line"/>
      <point x="849" y="540" type="line"/>
      <point x="1354" y="1456" type="line"/>
    </contour>
    <contour>
      <point x="677" y="1456" type="move" name="top"/>
    </contour>
  </outline>
</glyph>
<glyph name="Z" format="1">
  <advance width="1274"/>
  <unicode hex="005A"/>
  <outline>
    <contour>
      <point x="109" y="0" type="line"/>
      <point x="1193" y="0" type="line"/>
      <point x="1177" y="248" type="line"/>
      <point x="527" y="248" type="line"/>
      <point x="556" y="208" type="line"/>
      <point x="1159" y="1235" type="line"/>
      <point x="1160" y="1456" type="line"/>
      <point x="115" y="1456" type="line"/>
      <point x="133" y="1206" type="line"/>
      <point x="793" y="1206" type="line"/>
      <point x="758" y="1251" type="line"/>
      <point x="109" y="203" type="line"/>
    </contour>
    <contour>
      <point x="638" y="1456" type="move" name="top"/>
    </contour>
    <contour>
      <point x="593" y="0" type="move" name="bot"/>
    </contour>
  </outline>
</glyph>
<glyph name="asciicircum" format="1">
  <advance width="1522"/>
  <unicode hex="005E"/>
  <outline>
    <contour>
      <point x="662" y="1456" type="line"/>
      <point x="110" y="270" type="line"/>
      <point x="482" y="270" type="line"/>
      <point x="750" y="894" type="line"/>
      <point x="1040" y="270" type="line"/>
      <point x="1412" y="270" type="line"/>
      <point x="822" y="1456" type="line"/>
    </contour>
  </outline>
</glyph>
<glyph name="grave" format="1">
  <advance width="1093"/>
  <unicode hex="0060"/>
  <outline>
    <contour>
      <point x="425" y="1207" type="line"/>
      <point x="631" y="1207" type="line"/>
      <point x="459" y="1617" type="line"/>
      <point x="82" y="1617" type="line"/>
    </contour>
    <contour>
      <point x="567" y="1082" type="move" name="_top"/>
    </contour>
  </outline>
</glyph>
<glyph name="a" format="1">
  <advance width="1166"/>
  <unicode hex="0061"/>
  <outline>
    <contour>
      <point x="436" y="-16" type="curve" smooth="yes"/>
      <point x="644" y="-7"/>
      <point x="732" y="93"/>
      <point x="815" y="188" type="curve"/>
      <point x="726" y="188" type="line"/>
      <point x="789" y="0" type="line"/>
      <point x="1064" y="0" type="line"/>
      <point x="1064" y="626" type="line" smooth="yes"/>
      <point x="1064" y="964"/>
      <point x="859" y="1100"/>
      <point x="598" y="1100" type="curve" smooth="yes"/>
      <point x="448" y="1100"/>
      <point x="280" y="1056"/>
      <point x="121" y="979" type="curve"/>
      <point x="188" y="759" type="line"/>
      <point x="311" y="806"/>
      <point x="435" y="841"/>
      <point x="530" y="841" type="curve" smooth="yes"/>
      <point x="630" y="841"/>
      <point x="697" y="802"/>
      <point x="697" y="697" type="curve" smooth="yes"/>
      <point x="697" y="594" type="line"/>
      <point x="724" y="629" type="line"/>
      <point x="563" y="630" type="line" smooth="yes"/>
      <point x="355" y="631"/>
      <point x="81" y="568"/>
      <point x="81" y="306" type="curve" smooth="yes"/>
      <point x="81" y="85"/>
      <point x="229" y="-25"/>
    </contour>
    <contour>
      <point x="550" y="183" type="curve" smooth="yes"/>
      <point x="483" y="176"/>
      <point x="411" y="217"/>
      <point x="414" y="317" type="curve" smooth="yes"/>
      <point x="416" y="435"/>
      <point x="531" y="464"/>
      <point x="644" y="464" type="curve" smooth="yes"/>
      <point x="727" y="464" type="line"/>
      <point x="695" y="499" type="line"/>
      <point x="695" y="224" type="line"/>
      <point x="732" y="296" type="line"/>
      <point x="708" y="270"/>
      <point x="678" y="197"/>
    </contour>
    <contour>
      <point x="561" y="1081" type="move" name="top"/>
    </contour>
    <contour>
      <point x="897" y="-1" type="move" name="ogonek"/>
    </contour>
    <contour>
      <point x="645" y="-1" type="move" name="bot"/>
    </contour>
  </outline>
</glyph>
<glyph name="f" format="1">
  <advance width="849"/>
  <unicode hex="0066"/>
  <outline>
    <contour>
      <point x="357" y="1518"/>
      <point x="173" y="1439"/>
      <point x="173" y="1158" type="curve" smooth="yes"/>
      <point x="173" y="1045" type="line"/>
      <point x="208" y="1082" type="line"/>
      <point x="37" y="1054" type="line"/>
      <point x="32" y="869" type="line"/>
      <point x="208" y="869" type="line"/>
      <point x="173" y="902" type="line"/>
      <point x="173" y="0" type="line"/>
      <point x="551" y="0" type="line"/>
      <point x="551" y="903" type="line"/>
      <point x="517" y="869" type="line"/>
      <point x="814" y="869" type="line"/>
      <point x="814" y="1082" type="line"/>
      <point x="517" y="1082" type="line"/>
      <point x="551" y="1046" type="line"/>
      <point x="551" y="1158" type="line" smooth="yes"/>
      <point x="551" y="1246"/>
      <point x="610" y="1280"/>
      <point x="710" y="1280" type="curve" smooth="yes"/>
      <point x="745" y="1280"/>
      <point x="778" y="1277"/>
      <point x="849" y="1268" type="curve"/>
      <point x="859" y="1490" type="line"/>
      <point x="826" y="1498"/>
      <point x="735" y="1522"/>
      <point x="566" y="1521" type="curve" smooth="yes"/>
    </contour>
    <contour>
      <point x="471" y="1456" type="move" name="top"/>
    </contour>
  </outline>
</glyph>
<glyph name="k" format="1">
  <advance width="1230"/>
  <unicode hex="006B"/>
  <outline>
    <contour>
      <point x="134" y="0" type="line"/>
      <point x="512" y="0" type="line"/>
      <point x="512" y="459" type="line"/>
      <point x="475" y="392" type="line"/>
      <point x="577" y="498" type="line"/>
      <point x="533" y="502" type="line"/>
      <point x="843" y="0" type="line"/>
      <point x="1219" y="0" type="line"/>
      <point x="1219" y="32" type="line"/>
      <point x="800" y="668" type="line"/>
      <point x="800" y="572" type="line"/>
      <point x="1206" y="1064" type="line"/>
      <point x="1206" y="1082" type="line"/>
      <point x="816" y="1082" type="line"/>
      <point x="475" y="679" type="line"/>
      <point x="505" y="669" type="line"/>
      <point x="512" y="847" type="line"/>
      <point x="512" y="1560" type="line"/>
      <point x="134" y="1540" type="line"/>
    </contour>
    <contour>
      <point x="667" y="0" type="move" name="bot"/>
    </contour>
  </outline>
</glyph>
<glyph name="l" format="1">
  <advance width="782"/>
  <unicode hex="006C"/>
  <outline>
    <contour>
      <point x="645" y="-10" type="curve" smooth="yes"/>
      <point x="744" y="-6" type="line"/>
      <point x="756" y="228" type="line"/>
      <point x="602" y="239" type="line" smooth="yes"/>
      <point x="528" y="244"/>
      <point x="508" y="289"/>
      <point x="508" y="331" type="curve" smooth="yes"/>
      <point x="508" y="1560" type="line"/>
      <point x="130" y="1540" type="line"/>
      <point x="130" y="366" type="line" smooth="yes"/>
      <point x="130" y="81"/>
      <point x="267" y="-25"/>
    </contour>
    <contour>
      <point x="316" y="1560" type="move" name="top"/>
    </contour>
    <contour>
      <point x="325" y="884" type="move" name="mid"/>
    </contour>
    <contour>
      <point x="369" y="1082" type="move" name="caron.alt"/>
    </contour>
  </outline>
</glyph>
<glyph name="m" format="1">
  <advance width="1922"/>
  <unicode hex="006D"/>
  <outline>
    <contour>
      <point x="124" y="0" type="line"/>
      <point x="502" y="0" type="line"/>
      <point x="502" y="623" type="line"/>
      <point x="502" y="801"/>
      <point x="569" y="863"/>
      <point x="650" y="863" type="curve"/>
      <point x="734" y="863"/>
      <point x="777" y="814"/>
      <point x="777" y="623" type="curve"/>
      <point x="777" y="0" type="line"/>
      <point x="1155" y="0" type="line"/>
      <point x="1155" y="628" type="line"/>
      <point x="1155" y="673" type="line"/>
      <point x="1155" y="774"/>
      <point x="1222" y="863"/>
      <point x="1303" y="863" type="curve"/>
      <point x="1387" y="863"/>
      <point x="1430" y="814"/>
      <point x="1430" y="623" type="curve"/>
      <point x="1430" y="0" type="line"/>
      <point x="1808" y="0" type="line"/>
      <point x="1808" y="673" type="line"/>
      <point x="1808" y="938"/>
      <point x="1681" y="1102"/>
      <point x="1439" y="1102" type="curve"/>
      <point x="1209" y="1102"/>
      <point x="1119" y="948"/>
      <point x="1081" y="823" type="curve"/>
      <point x="1144" y="806" type="line"/>
      <point x="1095" y="1042"/>
      <point x="938" y="1102"/>
      <point x="786" y="1102" type="curve"/>
      <point x="575" y="1102"/>
      <point x="482" y="963"/>
      <point x="438" y="840" type="curve"/>
      <point x="476" y="833" type="line"/>
      <point x="449" y="1082" type="line"/>
      <point x="124" y="1082" type="line"/>
    </contour>
    <contour>
      <point x="1080" y="1082" type="move" name="top"/>
    </contour>
  </outline>
</glyph>
<glyph name="q" format="1">
  <advance width="1266"/>
  <unicode hex="0071"/>
  <outline>
    <contour>
      <point x="779" y="-478" type="line"/>
      <point x="1150" y="-478" type="line"/>
      <point x="1150" y="1082" type="line"/>
      <point x="815" y="1082" type="line"/>
      <point x="798" y="722" type="line"/>
      <point x="848" y="721" type="line"/>
      <point x="845" y="897"/>
      <point x="760" y="1102"/>
      <point x="509" y="1102" type="curve" smooth="yes"/>
      <point x="221" y="1102"/>
      <point x="80" y="861"/>
      <point x="80" y="550" type="curve" smooth="yes"/>
      <point x="80" y="217"/>
      <point x="221" y="-20"/>
      <point x="518" y="-20" type="curve" smooth="yes"/>
      <point x="727" y="-20"/>
      <point x="816" y="130"/>
      <point x="835" y="210" type="curve"/>
      <point x="786" y="210" type="line"/>
      <point x="779" y="-54" type="line"/>
    </contour>
    <contour>
      <point x="621" y="217" type="curve" smooth="yes"/>
      <point x="545" y="217"/>
      <point x="456" y="261"/>
      <point x="456" y="550" type="curve" smooth="yes"/>
      <point x="456" y="807"/>
      <point x="530" y="863"/>
      <point x="607" y="863" type="curve" smooth="yes"/>
      <point x="683" y="863"/>
      <point x="745" y="826"/>
      <point x="777" y="767" type="curve"/>
      <point x="777" y="294" type="line"/>
      <point x="746" y="255"/>
      <point x="703" y="217"/>
    </contour>
  </outline>
</glyph>
<glyph name="s" format="1">
  <advance width="1014.996"/>
  <unicode hex="0073"/>
  <outline>
    <contour>
      <point x="223" y="356" type="line"/>
      <point x="52" y="197" type="line"/>
      <point x="168" y="47"/>
      <point x="325" y="-20"/>
      <point x="549" y="-20" type="curve" smooth="yes"/>
      <point x="776" y="-20"/>
      <point x="981" y="100"/>
      <point x="978" y="318" type="curve" smooth="yes"/>
      <point x="976" y="448"/>
      <point x="946" y="536"/>
      <point x="727" y="634" type="curve" smooth="yes"/>
      <point x="575" y="702" type="line" smooth="yes"/>
      <point x="495" y="738"/>
      <point x="485" y="767"/>
      <point x="489" y="797" type="curve" smooth="yes"/>
      <point x="493" y="832"/>
      <point x="531" y="853"/>
      <point x="578" y="853" type="curve" smooth="yes"/>
      <point x="638" y="853"/>
      <point x="726" y="827"/>
      <point x="786" y="753" type="curve"/>
      <point x="801" y="753" type="line"/>
      <point x="961" y="902" type="line"/>
      <point x="872" y="1053"/>
      <point x="701" y="1102"/>
      <point x="518" y="1102" type="curve" smooth="yes"/>
      <point x="262" y="1102"/>
      <point x="96" y="978"/>
      <point x="93" y="785" type="curve" smooth="yes"/>
      <point x="90" y="616"/>
      <point x="186" y="522"/>
      <point x="386" y="445" type="curve" smooth="yes"/>
      <point x="493" y="404" type="line" smooth="yes"/>
      <point x="598" y="364"/>
      <point x="621" y="334"/>
      <point x="620" y="299" type="curve" smooth="yes"/>
      <point x="619" y="263"/>
      <point x="597" y="223"/>
      <point x="529" y="223" type="curve" smooth="yes"/>
      <point x="453" y="223"/>
      <point x="346" y="240"/>
      <point x="254" y="356" type="curve"/>
    </contour>
    <contour>
      <point x="482" y="1081" type="move" name="top"/>
    </contour>
    <contour>
      <point x="522" y="0" type="move" name="bot"/>
    </contour>
  </outline>
</glyph>
<glyph name="v" format="1">
  <advance width="1103"/>
  <unicode hex="0076"/>
  <outline>
    <contour>
      <point x="369" y="0" type="line"/>
      <point x="744" y="0" type="line"/>
      <point x="1103" y="1082" type="line"/>
      <point x="725" y="1082" type="line"/>
      <point x="614" y="608" type="line"/>
      <point x="549" y="284" type="line"/>
      <point x="604" y="284" type="line"/>
      <point x="518" y="610" type="line"/>
      <point x="387" y="1082" type="line"/>
      <point x="0" y="1082" type="line"/>
    </contour>
  </outline>
</glyph>
<glyph name="w" format="1">
  <advance width="1538"/>
  <unicode hex="0077"/>
  <outline>
    <contour>
      <point x="1216" y="1082" type="line"/>
      <point x="1064" y="158" type="line"/>
      <point x="1140" y="158" type="line"/>
      <point x="953" y="1082" type="line"/>
      <point x="621" y="1082" type="line"/>
      <point x="402" y="159" type="line"/>
      <point x="473" y="159" type="line"/>
      <point x="347" y="1082" type="line"/>
      <point x="0" y="1082" type="line"/>
      <point x="253" y="-6" type="line"/>
      <point x="588" y="-6" type="line"/>
      <point x="827" y="866" type="line"/>
      <point x="753" y="866" type="line"/>
      <point x="919" y="-6" type="line"/>
      <point x="1271" y="-6" type="line"/>
      <point x="1534" y="1082" type="line"/>
    </contour>
    <contour>
      <point x="786" y="1082" type="move" name="top"/>
    </contour>
  </outline>
</glyph>
<glyph name="x" format="1">
  <advance width="1102"/>
  <unicode hex="0078"/>
  <outline>
    <contour>
      <point x="746" y="1082" type="line"/>
      <point x="499" y="701" type="line"/>
      <point x="402" y="605" type="line"/>
      <point x="-10" y="-6" type="line"/>
      <point x="343" y="-6" type="line"/>
      <point x="642" y="416" type="line"/>
      <point x="729" y="503" type="line"/>
      <point x="1093" y="1082" type="line"/>
    </contour>
    <contour>
      <point x="8" y="1082" type="line"/>
      <point x="719" y="-6" type="line"/>
      <point x="1117" y="-6" type="line"/>
      <point x="401" y="1082" type="line"/>
    </contour>
  </outline>
</glyph>
<glyph name="braceright" format="1">
  <advance width="970"/>
  <unicode hex="007D"/>
  <outline>
    <contour>
      <point x="168" y="-324" type="line"/>
      <point x="354" y="-324"/>
      <point x="600" y="-301"/>
      <point x="600" y="-65" type="curve" smooth="yes"/>
      <point x="600" y="342" type="line" smooth="yes"/>
      <point x="600" y="434"/>
      <point x="610" y="532"/>
      <point x="818" y="532" type="curve"/>
      <point x="818" y="750" type="line"/>
      <point x="610" y="750"/>
      <point x="600" y="848"/>
      <point x="600" y="940" type="curve" smooth="yes"/>
      <point x="600" y="1347" type="line" smooth="yes"/>
      <point x="600" y="1583"/>
      <point x="354" y="1606"/>
      <point x="168" y="1606" type="curve"/>
      <point x="168" y="1410" type="line"/>
      <point x="292" y="1406"/>
      <point x="353" y="1398"/>
      <point x="353" y="1266" type="curve" smooth="yes"/>
      <point x="353" y="913" type="line" smooth="yes"/>
      <point x="353" y="811"/>
      <point x="367" y="678"/>
      <point x="553" y="641" type="curve"/>
      <point x="367" y="604"/>
      <point x="353" y="471"/>
      <point x="353" y="369" type="curve" smooth="yes"/>
      <point x="353" y="16" type="line" smooth="yes"/>
      <point x="353" y="-116"/>
      <point x="292" y="-124"/>
      <point x="168" y="-128" type="curve"/>
    </contour>
  </outline>
</glyph>
<glyph name="asciitilde" format="1">
  <advance width="1192"/>
  <unicode hex="007E"/>
  <outline>
    <contour>
      <point x="186" y="468" type="line"/>
      <point x="224" y="539"/>
      <point x="282" y="605"/>
      <point x="365" y="605" type="curve" smooth="yes"/>
      <point x="435" y="605"/>
      <point x="487" y="582"/>
      <point x="552" y="550" type="curve" smooth="yes"/>
      <point x="645" y="507"/>
      <point x="717" y="478"/>
      <point x="816" y="478" type="curve" smooth="yes"/>
      <point x="964" y="478"/>
      <point x="1097" y="578"/>
      <point x="1148" y="675" type="curve"/>
      <point x="1055" y="831" type="line"/>
      <point x="967" y="738"/>
      <point x="906" y="705"/>
      <point x="834" y="705" type="curve" smooth="yes"/>
      <point x="783" y="705"/>
      <point x="718" y="726"/>
      <point x="634" y="765" type="curve"/>
      <point x="555" y="800"/>
      <point x="462" y="829"/>
      <point x="377" y="829" type="curve" smooth="yes"/>
      <point x="224" y="829"/>
      <point x="138" y="738"/>
      <point x="86" y="633" type="curve"/>
    </contour>
  </outline>
</glyph>
<glyph name="sterling" format="1">
  <advance width="1228"/>
  <unicode hex="00A3"/>
  <outline>
    <contour>
      <point x="1048" y="1211" type="line"/>
      <point x="1166" y="1434" type="line"/>
      <point x="1136" y="1457"/>
      <point x="980" y="1560"/>
      <point x="750" y="1560" type="curve" smooth="yes"/>
      <point x="403" y="1560"/>
      <point x="275" y="1345"/>
      <point x="275" y="983" type="curve" smooth="yes"/>
      <point x="275" y="877" type="line"/>
      <point x="86" y="877" type="line"/>
      <point x="86" y="664" type="line"/>
      <point x="275" y="664" type="line"/>
      <point x="275" y="260" type="line"/>
      <point x="97" y="237" type="line"/>
      <point x="107" y="0" type="line"/>
      <point x="1141" y="0" type="line"/>
      <point x="1145" y="262" type="line"/>
      <point x="653" y="262" type="line"/>
      <point x="653" y="664" type="line"/>
      <point x="954" y="664" type="line"/>
      <point x="954" y="877" type="line"/>
      <point x="653" y="877" type="line"/>
      <point x="653" y="1049" type="line" smooth="yes"/>
      <point x="653" y="1191"/>
      <point x="721" y="1264"/>
      <point x="835" y="1263" type="curve" smooth="yes"/>
      <point x="889" y="1263"/>
      <point x="954" y="1245"/>
      <point x="1026" y="1211" type="curve"/>
    </contour>
  </outline>
</glyph>
<glyph name="yen" format="1">
  <advance width="1346"/>
  <unicode hex="00A5"/>
  <outline>
    <contour>
      <point x="177" y="237" type="line"/>
      <point x="1141" y="237" type="line"/>
      <point x="1141" y="382" type="line"/>
      <point x="177" y="382" type="line"/>
    </contour>
    <contour>
      <point x="177" y="536" type="line"/>
      <point x="1141" y="536" type="line"/>
      <point x="1141" y="681" type="line"/>
      <point x="177" y="681" type="line"/>
    </contour>
    <component base="Y"/>
  </outline>
</glyph>
<glyph name="brokenbar" format="1">
  <advance width="773"/>
  <unicode hex="00A6"/>
  <outline>
    <contour>
      <point x="251" y="273" type="line"/>
      <point x="251" y="-407" type="line"/>
      <point x="486" y="-407" type="line"/>
      <point x="486" y="273" type="line"/>
    </contour>
    <contour>
      <point x="251" y="1427" type="line"/>
      <point x="251" y="747" type="line"/>
      <point x="486" y="747" type="line"/>
      <point x="486" y="1427" type="line"/>
    </contour>
  </outline>
</glyph>
<glyph name="section" format="1">
  <advance width="1018"/>
  <unicode hex="00A7"/>
  <outline>
    <contour>
      <point x="519" y="-20" type="curve" smooth="yes"/>
      <point x="736" y="-8"/>
      <point x="890" y="84"/>
      <point x="890" y="358" type="curve" smooth="yes"/>
      <point x="890" y="442"/>
      <point x="853" y="520"/>
      <point x="776" y="582" type="curve"/>
      <point x="837" y="633"/>
      <point x="892" y="697"/>
      <point x="899" y="788" type="curve" smooth="yes"/>
      <point x="909" y="912"/>
      <point x="861" y="1002"/>
      <point x="682" y="1082" type="curve" smooth="yes"/>
      <point x="458" y="1182"/>
      <point x="446" y="1208"/>
      <point x="446" y="1252" type="curve" smooth="yes"/>
      <point x="446" y="1302"/>
      <point x="499" y="1321"/>
      <point x="569" y="1321" type="curve" smooth="yes"/>
      <point x="648" y="1321"/>
      <point x="747" y="1296"/>
      <point x="813" y="1259" type="curve"/>
      <point x="876" y="1448" type="line"/>
      <point x="770" y="1520"/>
      <point x="637" y="1554"/>
      <point x="544" y="1554" type="curve" smooth="yes"/>
      <point x="387" y="1554"/>
      <point x="168" y="1506"/>
      <point x="149" y="1261" type="curve" smooth="yes"/>
      <point x="139" y="1129"/>
      <point x="196" y="1041"/>
      <point x="315" y="960" type="curve"/>
      <point x="233" y="898"/>
      <point x="163" y="821"/>
      <point x="163" y="730" type="curve" smooth="yes"/>
      <point x="163" y="599"/>
      <point x="259" y="540"/>
      <point x="427" y="464" type="curve" smooth="yes"/>
      <point x="595" y="388"/>
      <point x="616" y="355"/>
      <point x="609" y="301" type="curve" smooth="yes"/>
      <point x="604" y="260"/>
      <point x="578" y="227"/>
      <point x="526" y="219" type="curve" smooth="yes"/>
      <point x="411" y="202"/>
      <point x="233" y="271"/>
      <point x="169" y="312" type="curve"/>
      <point x="169" y="66" type="line"/>
      <point x="270" y="11"/>
      <point x="413" y="-26"/>
    </contour>
    <contour>
      <point x="648" y="653" type="curve"/>
      <point x="583" y="684" type="line" smooth="yes"/>
      <point x="428" y="757"/>
      <point x="385" y="777"/>
      <point x="385" y="820" type="curve" smooth="yes"/>
      <point x="385" y="856"/>
      <point x="413" y="887"/>
      <point x="431" y="894" type="curve"/>
      <point x="431" y="894"/>
      <point x="527" y="856"/>
      <point x="580" y="828" type="curve" smooth="yes"/>
      <point x="656" y="788"/>
      <point x="682" y="749"/>
      <point x="681" y="715" type="curve" smooth="yes"/>
      <point x="681" y="691"/>
      <point x="667" y="670"/>
    </contour>
  </outline>
</glyph>
<glyph name="copyright" format="1">
  <advance width="1800"/>
  <unicode hex="00A9"/>
  <outline>
    <contour>
      <point x="922" y="253" type="curve" smooth="yes"/>
      <point x="1022" y="253"/>
      <point x="1122" y="280"/>
      <point x="1206" y="332" type="curve"/>
      <point x="1157" y="463" type="line"/>
      <point x="1083" y="424"/>
      <point x="1007" y="404"/>
      <point x="937" y="404" type="curve" smooth="yes"/>
      <point x="774" y="404"/>
      <point x="644" y="511"/>
      <point x="644" y="739" type="curve" smooth="yes"/>
      <point x="644" y="967"/>
      <point x="774" y="1074"/>
      <point x="937" y="1074" type="curve" smooth="yes"/>
      <point x="1007" y="1074"/>
      <point x="1083" y="1054"/>
      <point x="1157" y="1015" type="curve"/>
      <point x="1206" y="1146" type="line"/>
      <point x="1122" y="1198"/>
      <point x="1022" y="1225"/>
      <point x="922" y="1225" type="curve" smooth="yes"/>
      <point x="682" y="1225"/>
      <point x="445" y="1068"/>
      <point x="445" y="739" type="curve" smooth="yes"/>
      <point x="445" y="410"/>
      <point x="682" y="253"/>
    </contour>
    <contour>
      <point x="900" y="106" type="curve" smooth="yes"/>
      <point x="562" y="106"/>
      <point x="292" y="384"/>
      <point x="292" y="729" type="curve" smooth="yes"/>
      <point x="292" y="1073"/>
      <point x="562" y="1350"/>
      <point x="900" y="1350" type="curve" smooth="yes"/>
      <point x="1238" y="1350"/>
      <point x="1508" y="1073"/>
      <point x="1508" y="729" type="curve" smooth="yes"/>
      <point x="1508" y="384"/>
      <point x="1238" y="106"/>
    </contour>
    <contour>
      <point x="900" y="-58" type="curve" smooth="yes"/>
      <point x="1338" y="-58"/>
      <point x="1688" y="291"/>
      <point x="1688" y="729" type="curve" smooth="yes"/>
      <point x="1688" y="1166"/>
      <point x="1338" y="1514"/>
      <point x="900" y="1514" type="curve" smooth="yes"/>
      <point x="462" y="1514"/>
      <point x="112" y="1166"/>
      <point x="112" y="729" type="curve" smooth="yes"/>
      <point x="112" y="291"/>
      <point x="462" y="-58"/>
    </contour>
  </outline>
</glyph>
<glyph name="logicalnot" format="1">
  <advance width="1190"/>
  <unicode hex="00AC"/>
  <outline>
    <contour>
      <point x="92" y="859" type="line"/>
      <point x="92" y="632" type="line"/>
      <point x="877" y="632" type="line"/>
      <point x="877" y="249" type="line"/>
      <point x="1101" y="249" type="line"/>
      <point x="1101" y="859" type="line"/>
    </contour>
  </outline>
</glyph>
<glyph name="uni00AD" format="1">
  <advance width="1078"/>
  <unicode hex="00AD"/>
  <outline>
    <contour>
      <point x="210" y="48" type="line"/>
      <point x="856" y="48" type="line"/>
      <point x="856" y="292" type="line"/>
      <point x="210" y="292" type="line"/>
    </contour>
  </outline>
</glyph>
<glyph name="macron" format="1">
  <advance width="1028"/>
  <unicode hex="00AF"/>
  <outline>
    <contour>
      <point x="148" y="1259" type="line"/>
      <point x="876" y="1259" type="line"/>
      <point x="876" y="1418" type="line"/>
      <point x="148" y="1418" type="line"/>
    </contour>
    <contour>
      <point x="504" y="1331" type="move" name="_mid"/>
    </contour>
    <contour>
      <point x="513" y="1082" type="move" name="_top"/>
    </contour>
  </outline>
</glyph>
<glyph name="acute" format="1">
  <advance width="801"/>
  <unicode hex="00B4"/>
  <outline>
    <contour>
      <point x="406" y="1207" type="line"/>
      <point x="612" y="1207" type="line"/>
      <point x="955" y="1617" type="line"/>
      <point x="579" y="1617" type="line"/>
    </contour>
    <contour>
      <point x="514" y="1082" type="move" name="_top"/>
    </contour>
  </outline>
</glyph>
<glyph name="uni00B5" format="1">
  <advance width="1249"/>
  <unicode hex="00B5"/>
  <outline>
    <contour>
      <point x="102" y="598" type="line"/>
      <point x="102" y="-332" type="line"/>
      <point x="480" y="-332" type="line"/>
      <point x="480" y="598" type="line"/>
    </contour>
    <component base="u"/>
  </outline>
</glyph>
<glyph name="paragraph" format="1">
  <advance width="1256"/>
  <unicode hex="00B6"/>
  <outline>
    <contour>
      <point x="704" y="1301" type="line"/>
      <point x="904" y="1301" type="line"/>
      <point x="904" y="-260" type="line"/>
      <point x="1088" y="-260" type="line"/>
      <point x="1088" y="1456" type="line"/>
      <point x="671" y="1456" type="line" smooth="yes"/>
      <point x="248" y="1456"/>
      <point x="96" y="1334"/>
      <point x="96" y="1049" type="curve" smooth="yes"/>
      <point x="96" y="851"/>
      <point x="233" y="673"/>
      <point x="520" y="673" type="curve"/>
      <point x="520" y="-260" type="line"/>
      <point x="704" y="-260" type="line"/>
    </contour>
  </outline>
</glyph>
<glyph name="periodcentered" format="1">
  <advance width="592"/>
  <unicode hex="00B7"/>
  <outline>
    <contour>
      <point x="508" y="441" type="curve" smooth="yes"/>
      <point x="615" y="441"/>
      <point x="683" y="513"/>
      <point x="683" y="628" type="curve" smooth="yes"/>
      <point x="683" y="739"/>
      <point x="615" y="808"/>
      <point x="508" y="808" type="curve" smooth="yes"/>
      <point x="399" y="808"/>
      <point x="330" y="739"/>
      <point x="330" y="628" type="curve" smooth="yes"/>
      <point x="330" y="513"/>
      <point x="399" y="441"/>
    </contour>
    <contour>
      <point x="3" y="627" type="move" name="_mid"/>
    </contour>
  </outline>
</glyph>
<glyph name="uni00B9" format="1">
  <advance width="854"/>
  <unicode hex="00B9"/>
  <outline>
    <contour>
      <point x="233" y="547" type="line"/>
      <point x="713" y="547" type="line"/>
      <point x="713" y="726" type="line"/>
      <point x="578" y="726" type="line"/>
      <point x="578" y="1456" type="line"/>
      <point x="415" y="1456" type="line"/>
      <point x="390" y="1445"/>
      <point x="263" y="1367"/>
      <point x="215" y="1339" type="curve"/>
      <point x="215" y="1160" type="line"/>
      <point x="209" y="1157"/>
      <point x="325" y="1219"/>
      <point x="362" y="1236" type="curve"/>
      <point x="362" y="726" type="line"/>
      <point x="233" y="726" type="line"/>
    </contour>
  </outline>
</glyph>
<glyph name="ordmasculine" format="1">
  <advance width="965"/>
  <unicode hex="00BA"/>
  <outline>
    <contour>
      <point x="102" y="1138" type="curve" smooth="yes"/>
      <point x="102" y="904"/>
      <point x="235" y="717"/>
      <point x="480" y="717" type="curve" smooth="yes"/>
      <point x="713" y="717"/>
      <point x="858" y="905"/>
      <point x="858" y="1138" type="curve" smooth="yes"/>
      <point x="858" y="1376"/>
      <point x="731" y="1561"/>
      <point x="480" y="1561" type="curve" smooth="yes"/>
      <point x="235" y="1561"/>
      <point x="102" y="1373"/>
    </contour>
    <contour>
      <point x="644" y="1135" type="curve" smooth="yes"/>
      <point x="644" y="977"/>
      <point x="591" y="908"/>
      <point x="480" y="908" type="curve" smooth="yes"/>
      <point x="378" y="908"/>
      <point x="323" y="978"/>
      <point x="323" y="1138" type="curve" smooth="yes"/>
      <point x="323" y="1301"/>
      <point x="379" y="1370"/>
      <point x="480" y="1370" type="curve" smooth="yes"/>
      <point x="585" y="1370"/>
      <point x="644" y="1297"/>
    </contour>
  </outline>
</glyph>
<glyph name="AE" format="1">
  <advance width="2089"/>
  <unicode hex="00C6"/>
  <outline>
    <contour>
      <point x="929" y="1456" type="line"/>
      <point x="22" y="0" type="line"/>
      <point x="411" y="0" type="line"/>
      <point x="616" y="348" type="line"/>
      <point x="983" y="348" type="line"/>
      <point x="983" y="0" type="line"/>
      <point x="1953" y="0" type="line"/>
      <point x="1962" y="259" type="line"/>
      <point x="1285" y="259" type="line"/>
      <point x="1285" y="608" type="line"/>
      <point x="1901" y="608" type="line"/>
      <point x="1901" y="859" type="line"/>
      <point x="1285" y="859" type="line"/>
      <point x="1285" y="1206" type="line"/>
      <point x="1917" y="1206" type="line"/>
      <point x="1938" y="1456" type="line"/>
    </contour>
    <contour>
      <point x="983" y="576" type="line"/>
      <point x="723" y="576" type="line"/>
      <point x="983" y="1024" type="line"/>
    </contour>
    <contour>
      <point x="1334" y="1456" type="move" name="top"/>
    </contour>
  </outline>
</glyph>
<glyph name="Oslash" format="1">
  <advance width="1669"/>
  <unicode hex="00D8"/>
  <outline>
    <contour>
      <point x="542" y="-257" type="line"/>
      <point x="639" y="-4" type="line"/>
      <point x="700" y="-16"/>
      <point x="765" y="-22"/>
      <point x="834" y="-22" type="curve"/>
      <point x="1294" y="-22"/>
      <point x="1553" y="243"/>
      <point x="1553" y="725" type="curve"/>
      <point x="1553" y="1062"/>
      <point x="1422" y="1299"/>
      <point x="1182" y="1408" type="curve"/>
      <point x="1285" y="1677" type="line"/>
      <point x="1135" y="1735" type="line"/>
      <point x="1029" y="1457" type="line"/>
      <point x="969" y="1470"/>
      <point x="903" y="1476"/>
      <point x="833" y="1476" type="curve"/>
      <point x="376" y="1476"/>
      <point x="112" y="1201"/>
      <point x="112" y="723" type="curve"/>
      <point x="112" y="381"/>
      <point x="247" y="148"/>
      <point x="491" y="42" type="curve"/>
      <point x="398" y="-204" type="line"/>
    </contour>
    <contour>
      <point x="619" y="376" type="line"/>
      <point x="567" y="454"/>
      <point x="539" y="571"/>
      <point x="539" y="722" type="curve"/>
      <point x="539" y="1017"/>
      <point x="646" y="1192"/>
      <point x="834" y="1192" type="curve"/>
      <point x="866" y="1192"/>
      <point x="896" y="1187"/>
      <point x="923" y="1177" type="curve"/>
    </contour>
    <contour>
      <point x="835" y="262" type="curve"/>
      <point x="803" y="262"/>
      <point x="774" y="267"/>
      <point x="747" y="276" type="curve"/>
      <point x="1051" y="1067" type="line"/>
      <point x="1100" y="987"/>
      <point x="1125" y="869"/>
      <point x="1125" y="722" type="curve"/>
      <point x="1125" y="425"/>
      <point x="1023" y="262"/>
    </contour>
    <contour>
      <point x="833" y="1456" type="move" name="top"/>
    </contour>
  </outline>
</glyph>
<glyph name="Thorn" format="1">
  <advance width="1473"/>
  <unicode hex="00DE"/>
  <outline>
    <contour>
      <point x="168" y="0" type="line"/>
      <point x="567" y="0" type="line"/>
      <point x="567" y="342" type="line"/>
      <point x="528" y="308" type="line"/>
      <point x="700" y="308" type="line" smooth="yes"/>
      <point x="1229" y="308"/>
      <point x="1405" y="497"/>
      <point x="1405" y="830" type="curve" smooth="yes"/>
      <point x="1405" y="1142"/>
      <point x="1217" y="1284"/>
      <point x="650" y="1284" type="curve" smooth="yes"/>
      <point x="513" y="1284" type="line"/>
      <point x="567" y="1239" type="line"/>
      <point x="567" y="1456" type="line"/>
      <point x="168" y="1456" type="line"/>
    </contour>
    <contour>
      <point x="567" y="532" type="line"/>
      <point x="567" y="1095" type="line"/>
      <point x="505" y="1035" type="line"/>
      <point x="672" y="1035" type="line" smooth="yes"/>
      <point x="979" y="1036"/>
      <point x="1023" y="942"/>
      <point x="1023" y="811" type="curve" smooth="yes"/>
      <point x="1023" y="674"/>
      <point x="954" y="562"/>
      <point x="643" y="562" type="curve" smooth="yes"/>
      <point x="533" y="562" type="line"/>
    </contour>
    <contour>
      <point x="736" y="1456" type="move" name="top"/>
    </contour>
  </outline>
</glyph>
<glyph name="thorn" format="1">
  <advance width="1101"/>
  <unicode hex="00FE"/>
  <outline>
    <contour>
      <point x="195" y="602" type="line"/>
      <point x="195" y="-423" type="line"/>
      <point x="568" y="-423" type="line"/>
      <point x="568" y="602" type="line"/>
    </contour>
    <component base="b" xOffset="71"/>
  </outline>
</glyph>
<glyph name="Hbar" format="1">
  <advance width="1599"/>
  <unicode hex="0126"/>
  <outline>
    <contour>
      <point x="63" y="1290" type="line"/>
      <point x="63" y="1082" type="line"/>
      <point x="1533" y="1082" type="line"/>
      <point x="1533" y="1290" type="line"/>
    </contour>
    <component base="H"/>
  </outline>
</glyph>
<glyph name="dotlessi" format="1">
  <advance width="624"/>
  <unicode hex="0131"/>
  <outline>
    <contour>
      <point x="128" y="1082" type="line"/>
      <point x="128" y="0" type="line"/>
      <point x="506" y="0" type="line"/>
      <point x="506" y="1082" type="line"/>
    </contour>
    <contour>
      <point x="321" y="1082" type="move" name="top"/>
    </contour>
    <contour>
      <point x="348" y="0" type="move" name="ogonek"/>
    </contour>
  </outline>
</glyph>
<glyph name="kgreenlandic" format="1">
  <advance width="1199"/>
  <unicode hex="0138"/>
  <outline>
    <contour>
      <point x="104" y="0" type="line"/>
      <point x="389" y="0" type="line"/>
      <point x="389" y="440" type="line"/>
      <point x="308" y="271" type="line"/>
      <point x="517" y="493" type="line"/>
      <point x="423" y="483" type="line"/>
      <point x="772" y="0" type="line"/>
      <point x="1103" y="0" type="line"/>
      <point x="1103" y="5" type="line"/>
      <point x="630" y="657" type="line"/>
      <point x="614" y="508" type="line"/>
      <point x="1081" y="1064" type="line"/>
      <point x="1081" y="1082" type="line"/>
      <point x="749" y="1082" type="line"/>
      <point x="334" y="572" type="line"/>
      <point x="382" y="587" type="line"/>
      <point x="389" y="849" type="line"/>
      <point x="389" y="1082" type="line"/>
      <point x="104" y="1082" type="line"/>
    </contour>
  </outline>
</glyph>
<glyph name="Eng" format="1">
  <advance width="1648"/>
  <unicode hex="014A"/>
  <outline>
    <contour>
      <point x="1107" y="1084" type="line"/>
      <point x="1107" y="-19" type="line" smooth="yes"/>
      <point x="1107" y="-250"/>
      <point x="1074" y="-279"/>
      <point x="859" y="-279" type="curve"/>
      <point x="887" y="-512" type="line"/>
      <point x="1349" y="-493"/>
      <point x="1480" y="-364"/>
      <point x="1480" y="-62" type="curve" smooth="yes"/>
      <point x="1480" y="1084" type="line"/>
    </contour>
    <component base="N"/>
  </outline>
</glyph>
<glyph name="eng" format="1">
  <advance width="1249"/>
  <unicode hex="014B"/>
  <outline>
    <contour>
      <point x="781" y="188" type="line"/>
      <point x="781" y="-19" type="line" smooth="yes"/>
      <point x="781" y="-250"/>
      <point x="748" y="-279"/>
      <point x="538" y="-279" type="curve"/>
      <point x="566" y="-512" type="line"/>
      <point x="1028" y="-493"/>
      <point x="1159" y="-364"/>
      <point x="1159" y="-62" type="curve" smooth="yes"/>
      <point x="1159" y="188" type="line"/>
    </contour>
    <component base="n"/>
  </outline>
</glyph>
<glyph name="apostrophemod" format="1">
  <advance width="650"/>
  <unicode hex="02BC"/>
  <outline>
    <contour>
      <point x="41" y="1086" type="curve"/>
      <point x="298" y="1086" type="line"/>
      <point x="298" y="1086"/>
      <point x="356" y="1362"/>
      <point x="392" y="1560" type="curve"/>
      <point x="91" y="1560" type="line"/>
      <point x="80" y="1460"/>
      <point x="41" y="1086"/>
    </contour>
  </outline>
</glyph>
<glyph name="caron" format="1">
  <advance width="965"/>
  <unicode hex="02C7"/>
  <outline>
    <contour>
      <point x="295" y="1281" type="line"/>
      <point x="611" y="1281" type="line"/>
      <point x="825" y="1682" type="line"/>
      <point x="542" y="1682" type="line"/>
      <point x="454" y="1476" type="line"/>
      <point x="364" y="1682" type="line"/>
      <point x="81" y="1682" type="line"/>
    </contour>
    <contour>
      <point x="470" y="1082" type="move" name="_top"/>
    </contour>
  </outline>
</glyph>
<glyph name="uni02C9" format="1">
  <advance width="600"/>
  <unicode hex="02C9"/>
  <outline>
    <contour>
      <point x="-73" y="1353" type="line"/>
      <point x="655" y="1353" type="line"/>
      <point x="655" y="1540" type="line"/>
      <point x="-73" y="1540" type="line"/>
    </contour>
    <contour>
      <point x="289" y="1082" type="move" name="_top"/>
    </contour>
  </outline>
</glyph>
<glyph name="dotaccent" format="1">
  <advance width="655"/>
  <unicode hex="02D9"/>
  <outline>
    <contour>
      <point x="541" y="1462" type="curve" smooth="yes"/>
      <point x="541" y="1576"/>
      <point x="460" y="1653"/>
      <point x="332" y="1653" type="curve" smooth="yes"/>
      <point x="204" y="1653"/>
      <point x="123" y="1576"/>
      <point x="123" y="1462" type="curve" smooth="yes"/>
      <point x="123" y="1342"/>
      <point x="204" y="1263"/>
      <point x="332" y="1263" type="curve" smooth="yes"/>
      <point x="460" y="1263"/>
      <point x="541" y="1342"/>
    </contour>
    <contour>
      <point x="330.0" y="1082.0" type="move" name="_top"/>
    </contour>
  </outline>
</glyph>
<glyph name="ogonek" format="1">
  <advance width="766"/>
  <unicode hex="02DB"/>
  <outline>
    <contour>
      <point x="452" y="-451" type="curve" smooth="yes"/>
      <point x="520" y="-451"/>
      <point x="585" y="-435"/>
      <point x="651" y="-410" type="curve"/>
      <point x="642" y="-242" type="line"/>
      <point x="630" y="-250"/>
      <point x="566" y="-279"/>
      <point x="505" y="-279" type="curve" smooth="yes"/>
      <point x="464" y="-279"/>
      <point x="437" y="-237"/>
      <point x="437" y="-204" type="curve" smooth="yes"/>
      <point x="437" y="-147"/>
      <point x="463" y="-64"/>
      <point x="547" y="4" type="curve"/>
      <point x="423" y="4" type="line"/>
      <point x="350" y="-40"/>
      <point x="238" y="-120"/>
      <point x="238" y="-259" type="curve" smooth="yes"/>
      <point x="238" y="-392"/>
      <point x="342" y="-451"/>
    </contour>
    <contour>
      <point x="480" y="0" type="move" name="_ogonek"/>
    </contour>
  </outline>
</glyph>
<glyph name="uni0307" format="1">
  <advance width="655"/>
  <unicode hex="0307"/>
  <outline>
    <contour>
      <point x="527" y="1456" type="curve" smooth="yes"/>
      <point x="527" y="1565"/>
      <point x="451" y="1634"/>
      <point x="330" y="1634" type="curve" smooth="yes"/>
      <point x="209" y="1634"/>
      <point x="132" y="1565"/>
      <point x="132" y="1456" type="curve" smooth="yes"/>
      <point x="132" y="1342"/>
      <point x="209" y="1271"/>
      <point x="330" y="1271" type="curve" smooth="yes"/>
      <point x="451" y="1271"/>
      <point x="527" y="1342"/>
    </contour>
  </outline>
</glyph>
<glyph name="Delta" format="1">
  <advance width="1334"/>
  <unicode hex="0394"/>
  <outline>
    <contour>
      <point x="15" y="0" type="line"/>
      <point x="1280" y="0" type="line"/>
      <point x="774" y="1532" type="line"/>
      <point x="522" y="1532" type="line"/>
    </contour>
    <contour>
      <point x="334" y="217" type="line"/>
      <point x="647" y="1244" type="line"/>
      <point x="967" y="217" type="line"/>
    </contour>
  </outline>
</glyph>
<glyph name="emdash" format="1">
  <advance width="2251"/>
  <unicode hex="2014"/>
  <outline>
    <contour>
      <point x="60" y="443" type="line"/>
      <point x="2191" y="443" type="line"/>
      <point x="2191" y="660" type="line"/>
      <point x="60" y="660" type="line"/>
    </contour>
  </outline>
</glyph>
<glyph name="quoteright" format="1">
  <advance width="531"/>
  <unicode hex="2019"/>
  <outline>
    <contour>
      <point x="110" y="1034" type="line"/>
      <point x="330" y="1034" type="line"/>
      <point x="455" y="1560" type="line"/>
      <point x="145" y="1560" type="line"/>
    </contour>
  </outline>
</glyph>
<glyph name="quotesinglbase" format="1">
  <advance width="531"/>
  <unicode hex="201A"/>
  <outline>
    <contour>
      <point x="104" y="-387" type="line"/>
      <point x="324" y="-387" type="line"/>
      <point x="449" y="139" type="line"/>
      <point x="139" y="139" type="line"/>
    </contour>
  </outline>
</glyph>
<glyph name="quotedblright" format="1">
  <advance width="982"/>
  <unicode hex="201D"/>
  <outline>
    <contour>
      <point x="543" y="1034" type="line"/>
      <point x="763" y="1034" type="line"/>
      <point x="888" y="1560" type="line"/>
      <point x="578" y="1560" type="line"/>
    </contour>
    <contour>
      <point x="110" y="1034" type="line"/>
      <point x="330" y="1034" type="line"/>
      <point x="455" y="1560" type="line"/>
      <point x="145" y="1560" type="line"/>
    </contour>
  </outline>
</glyph>
<glyph name="daggerdbl" format="1">
  <advance width="1142"/>
  <unicode hex="2021"/>
  <outline>
    <contour>
      <point x="410" y="1456" type="line"/>
      <point x="410" y="1082" type="line"/>
      <point x="102" y="1082" type="line"/>
      <point x="102" y="864" type="line"/>
      <point x="410" y="864" type="line"/>
      <point x="410" y="572" type="line"/>
      <point x="102" y="572" type="line"/>
      <point x="102" y="354" type="line"/>
      <point x="410" y="354" type="line"/>
      <point x="410" y="-179" type="line"/>
      <point x="752" y="-179" type="line"/>
      <point x="752" y="354" type="line"/>
      <point x="1083" y="354" type="line"/>
      <point x="1083" y="572" type="line"/>
      <point x="761" y="572" type="line"/>
      <point x="761" y="864" type="line"/>
      <point x="1083" y="864" type="line"/>
      <point x="1083" y="1082" type="line"/>
      <point x="761" y="1082" type="line"/>
      <point x="761" y="1456" type="line"/>
    </contour>
  </outline>
</glyph>
<glyph name="guilsinglright" format="1">
  <advance width="766"/>
  <unicode hex="203A"/>
  <outline>
    <contour>
      <point x="131" y="173" type="line"/>
      <point x="336" y="173" type="line"/>
      <point x="614" y="587" type="line"/>
      <point x="354" y="991" type="line"/>
      <point x="150" y="991" type="line"/>
      <point x="395" y="590" type="line"/>
    </contour>
  </outline>
</glyph>
<glyph name="uni2113" format="1">
  <advance width="1375"/>
  <unicode hex="2113"/>
  <outline>
    <contour>
      <point x="603" y="-20" type="curve" smooth="yes"/>
      <point x="884" y="-20"/>
      <point x="1066" y="98"/>
      <point x="1066" y="98" type="curve"/>
      <point x="1036" y="310" type="line"/>
      <point x="936" y="272"/>
      <point x="838" y="241"/>
      <point x="766" y="240" type="curve" smooth="yes"/>
      <point x="678" y="238"/>
      <point x="629" y="282"/>
      <point x="663" y="417" type="curve" smooth="yes"/>
      <point x="746" y="754" type="line"/>
      <point x="673" y="630" type="line"/>
      <point x="1009" y="865" type="line" smooth="yes"/>
      <point x="1266" y="1045"/>
      <point x="1369" y="1129"/>
      <point x="1369" y="1339" type="curve" smooth="yes"/>
      <point x="1369" y="1576"/>
      <point x="1173" y="1709"/>
      <point x="972" y="1710" type="curve" smooth="yes"/>
      <point x="797" y="1711"/>
      <point x="619" y="1612"/>
      <point x="560" y="1396" type="curve" smooth="yes"/>
      <point x="340" y="585" type="line"/>
      <point x="409" y="706" type="line"/>
      <point x="65" y="456" type="line"/>
      <point x="125" y="334" type="line"/>
      <point x="354" y="489" type="line"/>
      <point x="318" y="524" type="line"/>
      <point x="217" y="154"/>
      <point x="363" y="-20"/>
    </contour>
    <contour>
      <point x="759" y="808" type="line"/>
      <point x="887" y="1331" type="line" smooth="yes"/>
      <point x="911" y="1428"/>
      <point x="976" y="1472"/>
      <point x="1039" y="1472" type="curve" smooth="yes"/>
      <point x="1134" y="1472"/>
      <point x="1183" y="1417"/>
      <point x="1182" y="1339" type="curve" smooth="yes"/>
      <point x="1181" y="1239"/>
      <point x="1100" y="1102"/>
      <point x="934" y="988" type="curve" smooth="yes"/>
      <point x="726" y="845" type="line"/>
    </contour>
  </outline>
</glyph>
<glyph name="trademark" format="1">
  <advance width="2035"/>
  <unicode hex="2122"/>
  <outline>
    <contour>
      <point x="899" y="521" type="line"/>
      <point x="1102" y="521" type="line"/>
      <point x="1122" y="1070" type="line"/>
      <point x="1354" y="595" type="line"/>
      <point x="1456" y="595" type="line"/>
      <point x="1689" y="1070" type="line"/>
      <point x="1709" y="521" type="line"/>
      <point x="1911" y="521" type="line"/>
      <point x="1891" y="1456" type="line"/>
      <point x="1677" y="1456" type="line"/>
      <point x="1406" y="887" type="line"/>
      <point x="1133" y="1456" type="line"/>
      <point x="919" y="1456" type="line"/>
    </contour>
    <contour>
      <point x="336" y="521" type="line"/>
      <point x="550" y="521" type="line"/>
      <point x="550" y="1292" type="line"/>
      <point x="799" y="1292" type="line"/>
      <point x="799" y="1456" type="line"/>
      <point x="86" y="1456" type="line"/>
      <point x="86" y="1292" type="line"/>
      <point x="336" y="1292" type="line"/>
    </contour>
  </outline>
</glyph>
<glyph name="partialdiff" format="1">
  <advance width="1404"/>
  <unicode hex="2202"/>
  <outline>
    <contour>
      <point x="567" y="-21" type="curve" smooth="yes"/>
      <point x="958" y="-21"/>
      <point x="1199" y="399"/>
      <point x="1199" y="933" type="curve" smooth="yes"/>
      <point x="1199" y="1448"/>
      <point x="725" y="1725"/>
      <point x="276" y="1455" type="curve"/>
      <point x="338" y="1297" type="line"/>
      <point x="636" y="1480"/>
      <point x="924" y="1322"/>
      <point x="915" y="974" type="curve"/>
      <point x="152" y="923"/>
      <point x="-46" y="-21"/>
    </contour>
    <contour>
      <point x="581" y="141" type="curve" smooth="yes"/>
      <point x="423" y="141"/>
      <point x="540" y="749"/>
      <point x="906" y="823" type="curve"/>
      <point x="882" y="542"/>
      <point x="769" y="141"/>
    </contour>
  </outline>
</glyph>
<glyph name="minus" format="1">
  <advance width="1223"/>
  <unicode hex="2212"/>
  <outline>
    <contour>
      <point x="92" y="666" type="line"/>
      <point x="92" y="450" type="line"/>
      <point x="1143" y="450" type="line"/>
      <point x="1143" y="666" type="line"/>
    </contour>
  </outline>
</glyph>
<glyph name="approxequal" format="1">
  <advance width="1314"/>
  <unicode hex="2248"/>
  <outline>
    <contour>
      <point x="875" y="935" type="curve" smooth="yes"/>
      <point x="819" y="935"/>
      <point x="758" y="964"/>
      <point x="687" y="1005" type="curve" smooth="yes"/>
      <point x="575" y="1069"/>
      <point x="507" y="1103"/>
      <point x="407" y="1103" type="curve" smooth="yes"/>
      <point x="225" y="1103"/>
      <point x="124" y="986"/>
      <point x="94" y="802" type="curve"/>
      <point x="263" y="733" type="line"/>
      <point x="281" y="834"/>
      <point x="318" y="886"/>
      <point x="384" y="895" type="curve" smooth="yes"/>
      <point x="442" y="903"/>
      <point x="496" y="871"/>
      <point x="532" y="851" type="curve" smooth="yes"/>
      <point x="686" y="765"/>
      <point x="774" y="728"/>
      <point x="883" y="728" type="curve" smooth="yes"/>
      <point x="1086" y="728"/>
      <point x="1149" y="850"/>
      <point x="1187" y="1024" type="curve"/>
      <point x="1037" y="1092" type="line"/>
      <point x="992" y="964"/>
      <point x="933" y="935"/>
    </contour>
    <contour>
      <point x="875" y="501" type="curve" smooth="yes"/>
      <point x="819" y="501"/>
      <point x="758" y="530"/>
      <point x="687" y="571" type="curve" smooth="yes"/>
      <point x="575" y="635"/>
      <point x="507" y="669"/>
      <point x="407" y="669" type="curve" smooth="yes"/>
      <point x="225" y="669"/>
      <point x="124" y="552"/>
      <point x="94" y="368" type="curve"/>
      <point x="263" y="299" type="line"/>
      <point x="281" y="400"/>
      <point x="318" y="452"/>
      <point x="384" y="461" type="curve" smooth="yes"/>
      <point x="442" y="469"/>
      <point x="496" y="437"/>
      <point x="532" y="417" type="curve" smooth="yes"/>
      <point x="686" y="331"/>
      <point x="774" y="294"/>
      <point x="883" y="294" type="curve" smooth="yes"/>
      <point x="1086" y="294"/>
      <point x="1149" y="416"/>
      <point x="1187" y="590" type="curve"/>
      <point x="1037" y="658" type="line"/>
      <point x="992" y="530"/>
      <point x="933" y="501"/>
    </contour>
  </outline>
</glyph>
<glyph name="lessequal" format="1">
  <advance width="1192"/>
  <unicode hex="2264"/>
  <outline>
    <contour>
      <point x="1051" y="333" type="line"/>
      <point x="1051" y="570" type="line"/>
      <point x="416" y="817" type="line"/>
      <point x="1055" y="1070" type="line"/>
      <point x="1055" y="1301" type="line"/>
      <point x="130" y="884" type="line"/>
      <point x="130" y="745" type="line"/>
    </contour>
    <contour>
      <point x="111" y="-7" type="line"/>
      <point x="1052" y="-7" type="line"/>
      <point x="1052" y="173" type="line"/>
      <point x="111" y="172" type="line"/>
    </contour>
  </outline>
</glyph>
<glyph name="commaaccent" format="1">
  <advance width="624"/>
  <outline>
    <contour>
      <point x="119" y="-556" type="curve"/>
      <point x="349" y="-556" type="line"/>
      <point x="496" y="-98" type="line"/>
      <point x="207" y="-98" type="line"/>
      <point x="207" y="-98"/>
      <point x="119" y="-556"/>
    </contour>
    <contour>
      <point x="348" y="0" type="move" name="_bot"/>
    </contour>
  </outline>
</glyph>
<glyph name="commaturnedabovecomb" format="1">
  <advance width="600"/>
  <outline>
    <contour>
      <point x="142" y="1289" type="curve"/>
      <point x="132" y="1273" type="line"/>
      <point x="439" y="1273" type="line"/>
      <point x="507" y="1791" type="line"/>
      <point x="284" y="1791" type="line"/>
      <point x="284" y="1791"/>
      <point x="142" y="1316"/>
    </contour>
    <contour>
      <point x="288" y="1082" type="move" name="_top"/>
    </contour>
  </outline>
</glyph>
<glyph name="dotlessj" format="1">
  <advance width="717"/>
  <outline>
    <contour>
      <point x="189" y="1082" type="line"/>
      <point x="189" y="0" type="line" smooth="yes"/>
      <point x="189" y="-146"/>
      <point x="167" y="-189"/>
      <point x="-4" y="-269" type="curve" smooth="yes"/>
      <point x="-100" y="-314" type="line"/>
      <point x="36" y="-584" type="line"/>
      <point x="128" y="-541" type="line" smooth="yes"/>
      <point x="399" y="-414"/>
      <point x="567" y="-343"/>
      <point x="567" y="-33" type="curve" smooth="yes"/>
      <point x="567" y="1082" type="line"/>
    </contour>
    <contour>
      <point x="375" y="1082" type="move" name="top"/>
    </contour>
  </outline>
</glyph>
<glyph name="middot" format="1">
  <advance width="650"/>
  <outline>
    <component base="period" xOffset="-55" yOffset="507"/>
    <contour>
      <point x="303" y="680" type="move" name="_mid"/>
    </contour>
  </outline>
</glyph>
